<svg xmlns="http://www.w3.org/2000/svg" xmlns:dc="http://purl.org/dc/elements/1.1/" xmlns:ns2="http://creativecommons.org/ns#" xmlns:ns4="http://www.w3.org/1999/xlink" xmlns:rdf="http://www.w3.org/1999/02/22-rdf-syntax-ns#" width="460.8pt" height="345.6pt" viewBox="0 0 460.8 345.6" version="1.1">
 <metadata>
  <rdf:RDF>
   <ns2:Work>
    <dc:type rdf:resource="http://purl.org/dc/dcmitype/StillImage" />
    <dc:date>2023-12-27T17:24:50.561799</dc:date>
    <dc:format>image/svg+xml</dc:format>
    <dc:creator>
     <ns2:Agent>
      <dc:title>Matplotlib v3.7.2, https://matplotlib.org/</dc:title>
     </ns2:Agent>
    </dc:creator>
   </ns2:Work>
  </rdf:RDF>
 </metadata>
 <defs>
  <style type="text/css">*{stroke-linejoin: round; stroke-linecap: butt}</style>
 <style type="text/css">.flappy-height{
        stroke:#fbfbe5;
        stroke-width:1.5;
        stroke-linecap:square;
        fill:#0d1521;
        stroke-dasharray:140%;
        stroke-dashoffset:140%;
        animation-name:flappy-height-anim;
        animation-duration:5s;
        animation-timing-function:linear;
        animation-fill-mode:forwards;
        animation-iteration-count: 1;
    }
    @keyframes flappy-height-anim{
        from{
            stroke-dashoffset:140%;
        }
        to{
            stroke-dashoffset:0%;
        }
    }
    </style></defs>
 <g id="figure_1">
  <g id="patch_1">
   <path d="M 0 345.6  L 460.8 345.6  L 460.8 0  L 0 0  z " style="fill: #0d1521" />
  </g>
  <g id="axes_1">
   <g id="patch_2">
    <path d="M 38.420552 312.24351  L 457.79976 312.24351  L 457.79976 20.61447  L 38.420552 20.61447  z " style="fill: #0d1521" />
   </g>
   <g id="matplotlib.axis_1">
    <g id="xtick_1">
     <g id="line2d_1">
      <defs>
       <path id="m0812a57b4b" d="M 0 0  L 0 3.5  " style="stroke: #fbfbe5; stroke-width: 0.8" />
      </defs>
      <g>
       <use ns4:href="#m0812a57b4b" x="57.483244" y="312.24351" style="fill: #fbfbe5; stroke: #fbfbe5; stroke-width: 0.8" />
      </g>
     </g>
     <g id="text_1">
      <text style="fill: #fbfbe5; font: 10px 'DejaVu Sans', 'Bitstream Vera Sans', 'Computer Modern Sans Serif', 'Lucida Grande', 'Verdana', 'Geneva', 'Lucid', 'Arial', 'Helvetica', 'Avant Garde', sans-serif; text-anchor: middle" x="57.483244" y="326.841947" transform="rotate(-0 57.483244 326.841947)">0.0</text>
     </g>
    </g>
    <g id="xtick_2">
     <g id="line2d_2">
      <g>
       <use ns4:href="#m0812a57b4b" x="130.801287" y="312.24351" style="fill: #fbfbe5; stroke: #fbfbe5; stroke-width: 0.8" />
      </g>
     </g>
     <g id="text_2">
      <text style="fill: #fbfbe5; font: 10px 'DejaVu Sans', 'Bitstream Vera Sans', 'Computer Modern Sans Serif', 'Lucida Grande', 'Verdana', 'Geneva', 'Lucid', 'Arial', 'Helvetica', 'Avant Garde', sans-serif; text-anchor: middle" x="130.801287" y="326.841947" transform="rotate(-0 130.801287 326.841947)">0.5</text>
     </g>
    </g>
    <g id="xtick_3">
     <g id="line2d_3">
      <g>
       <use ns4:href="#m0812a57b4b" x="204.11933" y="312.24351" style="fill: #fbfbe5; stroke: #fbfbe5; stroke-width: 0.8" />
      </g>
     </g>
     <g id="text_3">
      <text style="fill: #fbfbe5; font: 10px 'DejaVu Sans', 'Bitstream Vera Sans', 'Computer Modern Sans Serif', 'Lucida Grande', 'Verdana', 'Geneva', 'Lucid', 'Arial', 'Helvetica', 'Avant Garde', sans-serif; text-anchor: middle" x="204.11933" y="326.841947" transform="rotate(-0 204.11933 326.841947)">1.0</text>
     </g>
    </g>
    <g id="xtick_4">
     <g id="line2d_4">
      <g>
       <use ns4:href="#m0812a57b4b" x="277.437374" y="312.24351" style="fill: #fbfbe5; stroke: #fbfbe5; stroke-width: 0.8" />
      </g>
     </g>
     <g id="text_4">
      <text style="fill: #fbfbe5; font: 10px 'DejaVu Sans', 'Bitstream Vera Sans', 'Computer Modern Sans Serif', 'Lucida Grande', 'Verdana', 'Geneva', 'Lucid', 'Arial', 'Helvetica', 'Avant Garde', sans-serif; text-anchor: middle" x="277.437374" y="326.841947" transform="rotate(-0 277.437374 326.841947)">1.5</text>
     </g>
    </g>
    <g id="xtick_5">
     <g id="line2d_5">
      <g>
       <use ns4:href="#m0812a57b4b" x="350.755417" y="312.24351" style="fill: #fbfbe5; stroke: #fbfbe5; stroke-width: 0.8" />
      </g>
     </g>
     <g id="text_5">
      <text style="fill: #fbfbe5; font: 10px 'DejaVu Sans', 'Bitstream Vera Sans', 'Computer Modern Sans Serif', 'Lucida Grande', 'Verdana', 'Geneva', 'Lucid', 'Arial', 'Helvetica', 'Avant Garde', sans-serif; text-anchor: middle" x="350.755417" y="326.841947" transform="rotate(-0 350.755417 326.841947)">2.0</text>
     </g>
    </g>
    <g id="xtick_6">
     <g id="line2d_6">
      <g>
       <use ns4:href="#m0812a57b4b" x="424.07346" y="312.24351" style="fill: #fbfbe5; stroke: #fbfbe5; stroke-width: 0.8" />
      </g>
     </g>
     <g id="text_6">
      <text style="fill: #fbfbe5; font: 10px 'DejaVu Sans', 'Bitstream Vera Sans', 'Computer Modern Sans Serif', 'Lucida Grande', 'Verdana', 'Geneva', 'Lucid', 'Arial', 'Helvetica', 'Avant Garde', sans-serif; text-anchor: middle" x="424.07346" y="326.841947" transform="rotate(-0 424.07346 326.841947)">2.5</text>
     </g>
    </g>
    <g id="text_7">
     <text style="fill: #fbfbe5; font: 10px 'DejaVu Sans', 'Bitstream Vera Sans', 'Computer Modern Sans Serif', 'Lucida Grande', 'Verdana', 'Geneva', 'Lucid', 'Arial', 'Helvetica', 'Avant Garde', sans-serif; text-anchor: middle" x="248.110156" y="340.520072" transform="rotate(-0 248.110156 340.520072)">x position</text>
    </g>
   </g>
   <g id="matplotlib.axis_2">
    <g id="ytick_1">
     <g id="line2d_7">
      <defs>
       <path id="m0ba4267a36" d="M 0 0  L -3.5 0  " style="stroke: #fbfbe5; stroke-width: 0.8" />
      </defs>
      <g>
       <use ns4:href="#m0ba4267a36" x="38.420552" y="304.122434" style="fill: #fbfbe5; stroke: #fbfbe5; stroke-width: 0.8" />
      </g>
     </g>
     <g id="text_8">
      <text style="fill: #fbfbe5; font: 10px 'DejaVu Sans', 'Bitstream Vera Sans', 'Computer Modern Sans Serif', 'Lucida Grande', 'Verdana', 'Geneva', 'Lucid', 'Arial', 'Helvetica', 'Avant Garde', sans-serif; text-anchor: end" x="31.420552" y="307.921653" transform="rotate(-0 31.420552 307.921653)">&#8722;3</text>
     </g>
    </g>
    <g id="ytick_2">
     <g id="line2d_8">
      <g>
       <use ns4:href="#m0ba4267a36" x="38.420552" y="250.072015" style="fill: #fbfbe5; stroke: #fbfbe5; stroke-width: 0.8" />
      </g>
     </g>
     <g id="text_9">
      <text style="fill: #fbfbe5; font: 10px 'DejaVu Sans', 'Bitstream Vera Sans', 'Computer Modern Sans Serif', 'Lucida Grande', 'Verdana', 'Geneva', 'Lucid', 'Arial', 'Helvetica', 'Avant Garde', sans-serif; text-anchor: end" x="31.420552" y="253.871233" transform="rotate(-0 31.420552 253.871233)">&#8722;2</text>
     </g>
    </g>
    <g id="ytick_3">
     <g id="line2d_9">
      <g>
       <use ns4:href="#m0ba4267a36" x="38.420552" y="196.021595" style="fill: #fbfbe5; stroke: #fbfbe5; stroke-width: 0.8" />
      </g>
     </g>
     <g id="text_10">
      <text style="fill: #fbfbe5; font: 10px 'DejaVu Sans', 'Bitstream Vera Sans', 'Computer Modern Sans Serif', 'Lucida Grande', 'Verdana', 'Geneva', 'Lucid', 'Arial', 'Helvetica', 'Avant Garde', sans-serif; text-anchor: end" x="31.420552" y="199.820814" transform="rotate(-0 31.420552 199.820814)">&#8722;1</text>
     </g>
    </g>
    <g id="ytick_4">
     <g id="line2d_10">
      <g>
       <use ns4:href="#m0ba4267a36" x="38.420552" y="141.971175" style="fill: #fbfbe5; stroke: #fbfbe5; stroke-width: 0.8" />
      </g>
     </g>
     <g id="text_11">
      <text style="fill: #fbfbe5; font: 10px 'DejaVu Sans', 'Bitstream Vera Sans', 'Computer Modern Sans Serif', 'Lucida Grande', 'Verdana', 'Geneva', 'Lucid', 'Arial', 'Helvetica', 'Avant Garde', sans-serif; text-anchor: end" x="31.420552" y="145.770394" transform="rotate(-0 31.420552 145.770394)">0</text>
     </g>
    </g>
    <g id="ytick_5">
     <g id="line2d_11">
      <g>
       <use ns4:href="#m0ba4267a36" x="38.420552" y="87.920755" style="fill: #fbfbe5; stroke: #fbfbe5; stroke-width: 0.8" />
      </g>
     </g>
     <g id="text_12">
      <text style="fill: #fbfbe5; font: 10px 'DejaVu Sans', 'Bitstream Vera Sans', 'Computer Modern Sans Serif', 'Lucida Grande', 'Verdana', 'Geneva', 'Lucid', 'Arial', 'Helvetica', 'Avant Garde', sans-serif; text-anchor: end" x="31.420552" y="91.719974" transform="rotate(-0 31.420552 91.719974)">1</text>
     </g>
    </g>
    <g id="ytick_6">
     <g id="line2d_12">
      <g>
       <use ns4:href="#m0ba4267a36" x="38.420552" y="33.870335" style="fill: #fbfbe5; stroke: #fbfbe5; stroke-width: 0.8" />
      </g>
     </g>
     <g id="text_13">
      <text style="fill: #fbfbe5; font: 10px 'DejaVu Sans', 'Bitstream Vera Sans', 'Computer Modern Sans Serif', 'Lucida Grande', 'Verdana', 'Geneva', 'Lucid', 'Arial', 'Helvetica', 'Avant Garde', sans-serif; text-anchor: end" x="31.420552" y="37.669554" transform="rotate(-0 31.420552 37.669554)">2</text>
     </g>
    </g>
    <g id="text_14">
     <text style="fill: #fbfbe5; font: 10px 'DejaVu Sans', 'Bitstream Vera Sans', 'Computer Modern Sans Serif', 'Lucida Grande', 'Verdana', 'Geneva', 'Lucid', 'Arial', 'Helvetica', 'Avant Garde', sans-serif; text-anchor: middle" x="10.598677" y="166.42899" transform="rotate(-90 10.598677 166.42899)">y position</text>
    </g>
   </g>
   <g id="flappy-height">
    <path d="M 57.483244 33.870335  L 63.348687 33.976382  L 69.214131 34.294523  L 75.079574 34.824758  L 80.945018 35.567086  L 86.810461 36.521509  L 92.675905 37.688025  L 98.541348 39.066635  L 104.406791 40.657339  L 110.272235 42.460136  L 116.137678 44.475028  L 122.003122 46.702013  L 127.868565 49.141092  L 133.734009 51.792266  L 139.599452 54.655532  L 145.464896 57.730893  L 151.330339 61.018348  L 157.195783 64.517896  L 163.061226 68.229539  L 168.92667 72.153275  L 174.792113 76.289105  L 180.657556 80.637029  L 186.523 85.197046  L 192.388443 89.969158  L 198.253887 94.953363  L 204.11933 100.149663  L 209.984774 105.558056  L 215.850217 111.178543  L 221.715661 117.011124  L 227.581104 123.055798  L 236.379269 132.520486  L 245.177435 142.462385  L 253.9756 152.881496  L 262.773765 163.777817  L 271.57193 175.151349  L 280.370095 187.002093  L 289.16826 199.330048  L 297.966426 212.135214  L 306.764591 225.417591  L 315.562756 239.17718  L 324.360921 253.413979  L 333.159086 268.12799  L 341.957252 283.319212  L 350.755417 298.987645  L 57.483244 33.870335  L 63.348687 33.976382  L 69.214131 34.294523  L 75.079574 34.824758  L 80.945018 35.567086  L 86.810461 36.521509  L 92.675905 37.688025  L 98.541348 39.066635  L 104.406791 40.657339  L 110.272235 42.460136  L 116.137678 44.475028  L 122.003122 46.702013  L 127.868565 49.141092  L 133.734009 51.792266  L 139.599452 54.655532  L 145.464896 57.730893  L 151.330339 61.018348  L 157.195783 64.517896  L 163.061226 68.229539  L 168.92667 72.153275  L 174.792113 76.289105  L 180.657556 80.637029  L 186.523 85.197046  L 192.388443 89.969158  L 198.253887 94.953363  L 204.11933 100.149663  L 204.11933 100.149663  L 239.311991 87.283609  L 245.177435 85.439733  L 251.042878 83.807951  L 256.908321 82.388262  L 262.773765 81.180668  L 268.639208 80.185167  L 274.504652 79.40176  L 280.370095 78.830448  L 286.235539 78.471228  L 292.100982 78.324103  L 297.966426 78.389072  L 303.831869 78.666134  L 309.697313 79.155291  L 315.562756 79.856541  L 321.4282 80.769885  L 327.293643 81.895323  L 333.159086 83.232854  L 339.02453 84.78248  L 344.889973 86.544199  L 350.755417 88.518012  L 57.483244 33.870335  L 63.348687 33.976382  L 69.214131 34.294523  L 75.079574 34.824758  L 80.945018 35.567086  L 86.810461 36.521509  L 92.675905 37.688025  L 98.541348 39.066635  L 104.406791 40.657339  L 110.272235 42.460136  L 116.137678 44.475028  L 122.003122 46.702013  L 127.868565 49.141092  L 133.734009 51.792266  L 139.599452 54.655532  L 145.464896 57.730893  L 151.330339 61.018348  L 157.195783 64.517896  L 163.061226 68.229539  L 168.92667 72.153275  L 174.792113 76.289105  L 180.657556 80.637029  L 186.523 85.197046  L 192.388443 89.969158  L 198.253887 94.953363  L 204.11933 100.149663  L 204.11933 100.149663  L 239.311991 87.283609  L 245.177435 85.439733  L 251.042878 83.807951  L 256.908321 82.388262  L 262.773765 81.180668  L 268.639208 80.185167  L 274.504652 79.40176  L 280.370095 78.830448  L 286.235539 78.471228  L 292.100982 78.324103  L 297.966426 78.389072  L 303.831869 78.666134  L 309.697313 79.155291  L 315.562756 79.856541  L 321.4282 80.769885  L 327.293643 81.895323  L 333.159086 83.232854  L 339.02453 84.78248  L 344.889973 86.544199  L 350.755417 88.518012  L 356.62086 90.703919  L 362.486304 93.10192  L 368.351747 95.712015  L 374.217191 98.534204  L 380.082634 101.568486  L 385.948078 104.814863  L 391.813521 108.273333  L 397.678965 111.943897  L 403.544408 115.826555  L 409.409851 119.921306  L 415.275295 124.228152  L 421.140738 128.747091  L 427.006182 133.478124  L 432.871625 138.421252  L 438.737069 143.576473  L 438.737069 143.576473  " clip-path="url(#p287c602fcb)" style="" class="flappy-height" />
   </g>
   <g id="patch_3">
    <path d="M 38.420552 312.24351  L 38.420552 20.61447  " style="fill: none; stroke: #fbfbe5; stroke-width: 0.8; stroke-linejoin: miter; stroke-linecap: square" />
   </g>
   <g id="patch_4">
    <path d="M 457.79976 312.24351  L 457.79976 20.61447  " style="fill: none; stroke: #fbfbe5; stroke-width: 0.8; stroke-linejoin: miter; stroke-linecap: square" />
   </g>
   <g id="patch_5">
    <path d="M 38.420552 312.24351  L 457.79976 312.24351  " style="fill: none; stroke: #fbfbe5; stroke-width: 0.8; stroke-linejoin: miter; stroke-linecap: square" />
   </g>
   <g id="patch_6">
    <path d="M 38.420552 20.61447  L 457.79976 20.61447  " style="fill: none; stroke: #fbfbe5; stroke-width: 0.8; stroke-linejoin: miter; stroke-linecap: square" />
   </g>
  </g>
  <g id="text_15">
   <text style="fill: #fbfbe5; font: 12px 'DejaVu Sans', 'Bitstream Vera Sans', 'Computer Modern Sans Serif', 'Lucida Grande', 'Verdana', 'Geneva', 'Lucid', 'Arial', 'Helvetica', 'Avant Garde', sans-serif; text-anchor: middle" x="230.4" y="12.118365" transform="rotate(-0 230.4 12.118365)">Flappy Bird Simulation</text>
  </g>
 </g>
 <defs>
  <clipPath id="p287c602fcb">
   <rect x="38.420552" y="20.61447" width="419.379208" height="291.62904" />
  </clipPath>
 </defs>
</svg>